<svg xmlns="http://www.w3.org/2000/svg" width="20" height="20" viewBox="0 0 20 20" fill="none">
  <circle cx="10" cy="10" r="10" fill="#F2F2F2"/>
  <path d="M15.2 10.23C15.2 9.82 15.16 9.43 15.09 9.05H10V10.96H12.64C12.52 11.59 12.18 12.1 11.63 12.45V13.74H13.33C14.3 12.85 14.88 11.67 14.88 10.23H15.2Z" fill="#4285F4"/>
  <path d="M10 15C11.35 15 12.48 14.55 13.33 13.74L11.63 12.45C11.17 12.76 10.62 12.95 10 12.95C8.71 12.95 7.63 12.07 7.24 10.89H5.48V12.22C6.32 13.85 7.99 15 10 15Z" fill="#34A853"/>
  <path d="M7.24 10.89C7.13 10.58 7.07 10.24 7.07 9.89C7.07 9.54 7.13 9.2 7.24 8.9V7.57H5.48C5.07 8.39 4.84 9.25 4.84 10.23C4.84 11.21 5.07 12.07 5.48 12.89L7.24 10.89Z" fill="#FBBC05"/>
  <path d="M10 7.94C10.7 7.94 11.32 8.18 11.82 8.63L13.43 7.02C12.47 6.15 11.35 5.65 10 5.65C7.99 5.65 6.32 6.8 5.48 8.43L7.24 9.76C7.63 8.58 8.71 7.94 10 7.94Z" fill="#EA4335"/>
</svg>
